<svg xmlns="http://www.w3.org/2000/svg">
<symbol id="battery" viewBox="0 0 25.299999237060547 23.200000762939453"><path d="M25.3 23.2H0V3.9h25.3v19.3zM2 21.2h21.3V5.9H2v15.3z"/><path d="M9.4 5.6H1.9V0h7.4v5.6zm-5.5-2h3.4V2H3.9v1.6zM23.4 5.6H16V0h7.4v5.6zm-5.5-2h3.4V2h-3.4v1.6zM1 8.2h23.3v1H1zM4.4 14h4.3v1H4.4zM16.4 14h4.3v1h-4.3z"/><path d="M6.1 12.4h1v4.3h-1z"/></symbol>
<symbol id="car" viewBox="0 0 39.70000076293945 16.799999237060547"><path d="M12.5 11.7h16.8v2H12.5z"/><path d="M39.4 13.7h-4v-2h2.3c.1-1-.1-1.9-.7-2.6-.7-.9-1.9-1.5-3.2-1.7-2.4-.3-6.5-1.2-8.2-2.2l-.4-.3c-3.7-2.3-4.1-2.6-7.8-2.9C11 1.8 5 5.4 4.9 5.4l-.2.2H2.4c-.1 0-.2.1-.3.1 0 0-.1.1-.1.3v4c0 1.4 3.1 1.8 3.9 1.8l-.1 2c-2.2-.1-5.9-1-5.8-3.9v-4c0-.6.2-1.2.7-1.7.4-.5 1-.7 1.7-.7h1.7C5.4 2.8 11.2-.2 17.5 0c4.3.4 5 .8 8.8 3.2l.4.3c1.3.8 4.9 1.7 7.4 1.9 1.9.2 3.5 1.1 4.6 2.4.9 1.2 1.3 2.7 1 4.3v.3c0 .2-.1.4-.1.5l-.2.8z"/><path d="M2.8 10.6h-2V5.9h2.7c1.1 0 2 .9 2 2 0 1.4-1.2 2.7-2.7 2.7zm0-2.7v.7c.4 0 .7-.3.7-.7h-.7zM9.1 16.8c-2.2 0-4-1.8-4-4s1.8-4 4-4 4 1.8 4 4c.1 2.1-1.7 4-4 4zm0-6.1c-1.1 0-2 .9-2 2s.9 2 2 2 2-.9 2-2-.8-2-2-2z"/><path d="M9.1 14c-.7 0-1.3-.6-1.3-1.3s.6-1.3 1.3-1.3c.7 0 1.3.6 1.3 1.3S9.9 14 9.1 14zm0-1.7c-.2 0-.3.1-.3.3s.2.4.3.4c.2 0 .3-.1.3-.3s-.1-.4-.3-.4zM32 16.8c-2.2 0-4-1.8-4-4s1.8-4 4-4 4 1.8 4 4c0 2.1-1.8 4-4 4zm0-6.1c-1.1 0-2 .9-2 2s.9 2 2 2 2-.9 2-2-.9-2-2-2z"/><path d="M32 14c-.7 0-1.3-.6-1.3-1.3s.6-1.3 1.3-1.3 1.3.6 1.3 1.3S32.7 14 32 14zm0-1.7c-.2 0-.3.1-.3.3s.1.4.3.4.3-.1.3-.3-.2-.4-.3-.4zM32.8 7.3H10.6C7.8 7.3 6.4 4 6.2 3.6c-.2-.5 0-1.1.6-1.3.5-.2 1.1 0 1.3.5.3.6 1.3 2.5 2.5 2.5h22.2c.6 0 1 .4 1 1s-.5 1-1 1z"/><path d="M10 10.3h-.2c-.6-.1-.9-.7-.8-1.2l1.4-7.5c.1-.6.6-.9 1.1-.8.5.1.9.6.8 1.2l-1.4 7.5c-.1.4-.5.8-.9.8zM19.4 13.3c-.6 0-1-.4-1-1V6.1l-1.6-4.4c-.2-.5.1-1.1.6-1.3.5-.2 1.1.1 1.3.6l1.7 4.7v6.6c0 .6-.4 1-1 1zM36.8 10.7h-.4c-1-.2-1.7-1.2-1.5-2.3.2-1.1 1.2-1.7 2.3-1.5l-.4 2v-.1l1.9.4c-.1.5-.4.9-.8 1.2-.3.2-.7.3-1.1.3z"/></symbol>
<symbol id="oil" viewBox="0 0 21.899999618530273 28.5"><path d="M21.9 28.5H4.6v-3.8h2v1.8h13.3V11.2l-6.7-5-6.6.1v4.9h-2V4.3l9.2-.1 8.1 5.9z"/><path d="M4.6 6V0h9.1v5.9L4.6 6zm2-4v2h5.1V2H6.6z"/><path d="M7.6 1h1v3.5h-1zM9.6 1h1v3.5h-1zM5.8 25c-2.1 0-4-1.1-5.1-3-1-1.9-1-4.1.2-5.9l4.9-7.8 4.9 7.8c1.1 1.8 1.2 4 .2 5.9-1.1 1.8-3 3-5.1 3zm0-13l-3.2 5.1c-.7 1.2-.8 2.6-.1 3.8s1.9 2 3.3 2 2.6-.7 3.3-2c.7-1.2.6-2.7-.1-3.8L5.8 12z"/><path d="M8.5 14h12.4v1H8.5zM10.5 19.6h10.4v1H10.5z"/></symbol>
<symbol id="truck" viewBox="0 0 45.79999923706055 31.100000381469727"><path d="M6.7 31.1c-2.5 0-4.5-2-4.5-4.5s2-4.5 4.5-4.5 4.5 2 4.5 4.5-2 4.5-4.5 4.5zm0-7c-1.4 0-2.5 1.1-2.5 2.5s1.1 2.5 2.5 2.5 2.5-1.1 2.5-2.5-1.1-2.5-2.5-2.5z"/><path d="M6.7 28.6c-1.2 0-2.1-.9-2.1-2.1s.9-2.1 2.1-2.1c1.2 0 2.1.9 2.1 2.1s-.9 2.1-2.1 2.1zm0-2.2c-.1 0-.1 0-.1.1s.2.1.2 0 0-.1-.1-.1zM14.1 31.1c-2.5 0-4.5-2-4.5-4.5s2-4.5 4.5-4.5 4.5 2 4.5 4.5c-.1 2.5-2.1 4.5-4.5 4.5zm0-7c-1.4 0-2.5 1.1-2.5 2.5s1.1 2.5 2.5 2.5 2.5-1.1 2.5-2.5c-.1-1.4-1.2-2.5-2.5-2.5z"/><path d="M14.1 28.6c-1.2 0-2.1-.9-2.1-2.1s.9-2.1 2.1-2.1c1.2 0 2.1.9 2.1 2.1s-1 2.1-2.1 2.1zm0-2.2c-.1 0-.1 0-.1.1s.2.1.2 0-.1-.1-.1-.1zM37.2 31.1c-2.5 0-4.5-2-4.5-4.5s2-4.5 4.5-4.5 4.5 2 4.5 4.5-2.1 4.5-4.5 4.5zm0-7c-1.4 0-2.5 1.1-2.5 2.5s1.1 2.5 2.5 2.5 2.5-1.1 2.5-2.5-1.2-2.5-2.5-2.5z"/><path d="M37.2 28.6c-1.2 0-2.1-.9-2.1-2.1s.9-2.1 2.1-2.1 2.1.9 2.1 2.1-1 2.1-2.1 2.1zm0-2.2c-.1 0-.1 0-.1.1s.2.1.2 0-.1-.1-.1-.1zM17.8 25.3h15.9v2H17.8zM27.8 23.4h-5.7V12.8h5.7v10.6zm-3.6-2h1.7v-6.6h-1.7v6.6z"/><path d="M26.8 23.4c-.6 0-1-.4-1-1V1c0-.6.4-1 1-1s1 .4 1 1v21.4c0 .6-.4 1-1 1z"/><path d="M25 14.7c-.6 0-1-.4-1-1V10l-3-3c-.4-.4-.4-1 0-1.4s1-.4 1.4 0L26 9.2v4.5c0 .6-.4 1-1 1zM9.2 23.4c-.4 0-.7-.2-.9-.5-.3-.5-.1-1.1.4-1.4l5.7-3.1c.5-.3 1.1-.1 1.4.4.3.5.1 1.1-.4 1.4l-5.7 3.1c-.2.1-.3.1-.5.1z"/><path d="M44.1 25.2h-.3c-.5-.1-1-.4-1.3-.8L41 23.3c-2.3-1.7-5.3-2-7.8-.8l-2.1 1H1c-.6 0-1-.4-1-1s.4-1 1-1h24.8V6.1c0-2.3 1.9-4.3 4.3-4.3h11.7c1.1 0 2.1.4 2.9 1.2s1.2 1.8 1.2 2.9v8.2c0 1.2-.6 2.3-1.5 3v1.2c.9.4 1.5 1.3 1.5 2.3v3.6l-.3.3c-.4.4-1 .7-1.5.7zm-7.7-5.5c2 0 4 .6 5.7 1.9l1.7 1.3v-2.2c0-.3-.2-.5-.5-.5h-1v-4.1l.7-.4c.5-.3.8-.9.8-1.5V6c0-.6-.2-1.1-.6-1.5-.4-.4-.9-.6-1.5-.6H30c-1.2 0-2.3 1-2.3 2.3v15.3h2.8l1.7-.8c1.4-.7 2.8-1 4.2-1z"/><path d="M36 21.1h-2v-12h3.5l1.7 1.2h5.6v2h-6.3l-1.6-1.2H36z"/><path d="M33.2 2.9h2v7.2h-2zM35.6 2.9h2v17.5h-2zM28.7 16.5h-1.3V12h4.7v1c0 1.9-1.5 3.5-3.4 3.5zm.7-2.5v.2c.1-.1.2-.1.3-.2h-.3z"/><path d="M28.1 16.4h2.8v2h-2.8zM28.1 18.4h2.8v2h-2.8zM44.8 14.5h-4.2c-.6 0-1-.4-1-1s.4-1 1-1h4.2c.6 0 1 .4 1 1s-.4 1-1 1z"/><path d="M44.8 16.2h-2.5c-.6 0-1-.4-1-1s.4-1 1-1h2.5c.6 0 1 .4 1 1s-.4 1-1 1zM33.7 7.3H29c-.6 0-1-.4-1-1s.4-1 1-1h4.7c.6 0 1 .4 1 1s-.5 1-1 1zM33.7 9.3h-5.3c-.6 0-1-.4-1-1s.4-1 1-1h5.3c.6 0 1 .4 1 1s-.5 1-1 1z"/></symbol>
<symbol id="wheel" viewBox="0 0 24.299999237060547 24.299999237060547"><path d="M12.1 24.3C5.4 24.3 0 18.8 0 12.1S5.4 0 12.1 0s12.1 5.4 12.1 12.1-5.4 12.2-12.1 12.2zm0-22.3C6.5 2 2 6.5 2 12.1s4.5 10.1 10.1 10.1 10.1-4.5 10.1-10.1S17.7 2 12.1 2z"/><path d="M12.1 21.5c-5.1 0-9.3-4.2-9.3-9.3C2.8 7 7 2.8 12.1 2.8c5.1 0 9.3 4.2 9.3 9.3.1 5.2-4.1 9.4-9.3 9.4zm0-16.7c-4 0-7.3 3.3-7.3 7.3s3.3 7.3 7.3 7.3 7.3-3.3 7.3-7.3-3.2-7.3-7.3-7.3z"/><path d="M12.1 16.3c-2.3 0-4.2-1.9-4.2-4.2S9.8 8 12.1 8s4.2 1.9 4.2 4.2-1.9 4.1-4.2 4.1zm0-6.3c-1.2 0-2.2 1-2.2 2.2 0 1.2 1 2.2 2.2 2.2 1.2 0 2.2-1 2.2-2.2 0-1.3-1-2.2-2.2-2.2z"/><path d="M12.8 12.1c0 .4-.3.6-.6.6s-.6-.3-.6-.6c0-.4.3-.6.6-.6s.6.3.6.6M1.764 15.009l6.984-2.73.365.93-6.985 2.731zM15.315 13.203l.364-.931L22.665 15l-.364.931zM11.562 23.241l.094-7.999 1 .012-.094 7.999zM5.083 3.353l.809-.588 4.764 6.55-.808.588zM13.296 9.421l4.764-6.55.809.587-4.764 6.551z"/></symbol>
</svg>